<?xml version="1.0" encoding="UTF-8" standalone="no"?>
<svg width="52px" height="52px" viewBox="0 0 52 52" version="1.1" xmlns="http://www.w3.org/2000/svg" xmlns:xlink="http://www.w3.org/1999/xlink">
    <!-- Generator: Sketch 39.1 (31720) - http://www.bohemiancoding.com/sketch -->
    <title>Logo</title>
    <desc>Created with Sketch.</desc>
    <defs></defs>
    <g id="Single-Post" stroke="none" stroke-width="1" fill="none" fill-rule="evenodd">
        <g id="iPhone-SE" transform="translate(-19.000000, -18.000000)">
            <g id="Header" transform="translate(0.000000, -1.000000)">
                <g id="Logo" transform="translate(20.000000, 20.000000)">
                    <path d="M38.5044042,20.3771626 C37.3471232,21.9075154 35.9238325,22.7998522 34.5998304,22.8252609 C31.6502402,22.8828385 28.7529684,22.3529845 28.6311248,22.330373 L29.0526942,20.0379907 C29.0803647,20.042886 31.8441668,20.5456995 34.555418,20.4946489 C35.0313984,20.4855577 35.8643059,20.0102509 36.6516384,18.9689582 C37.7342787,17.53721 38.2107241,15.7518372 37.8654233,14.4205585 C37.5284933,13.1214486 36.7072121,12.0323688 35.5527213,11.3540251 C34.402416,10.6780124 33.0591143,10.4924586 31.7711537,10.8304649 C29.2633626,11.4889945 28.1651431,14.4921226 28.0800386,14.7361865 C27.8435598,15.6686177 25.6468883,28.2764873 24.2210399,36.5660345 L24.2017402,36.6567134 C23.744827,38.4486132 22.183881,40.6437896 19.1733691,41.4305284 C18.5692669,41.5885755 17.9551662,41.6666667 17.3438558,41.6666667 C16.0621734,41.6666667 14.7918848,41.323532 13.6446023,40.6526477 C11.940653,39.6565779 10.7317512,38.0649177 10.2404241,36.171616 C9.7363081,34.2265644 10.0330111,32.1404825 11.0547296,30.4478866 C12.0511028,28.7972501 13.6355338,27.6473293 15.5159702,27.2097859 C17.8891289,26.6573204 21.3328365,26.9184011 21.4783977,26.9298234 L21.2977251,29.2539084 C21.2656365,29.2515773 18.0635233,29.0100776 16.0417111,29.4807223 C14.7774682,29.7749043 13.7129649,30.5469574 13.0439881,31.6549189 C12.3450154,32.8127655 12.1434155,34.245213 12.4908091,35.5848836 C12.8249488,36.8730375 13.650648,37.9576881 14.8160675,38.6390623 C15.9756738,39.3167067 17.3150226,39.5071558 18.5864739,39.1749772 C20.594567,38.6500184 21.6309346,37.261162 21.9378687,36.1205654 C22.5624331,32.489678 25.5701547,15.0415577 25.8501159,14.0734609 L25.8589518,14.0445555 C25.9166182,13.8631977 27.313866,9.59126376 31.1819332,8.57537988 C33.0719032,8.07886022 35.0416295,8.35182948 36.7286045,9.34277082 C38.4195323,10.3365095 39.622621,11.9314332 40.1160408,13.8338261 C40.7438606,16.2562825 39.695169,18.8022862 38.5044042,20.3771626 L38.5044042,20.3771626 L38.5044042,20.3771626 Z" fill="#FC354C"></path>
                    <circle id="Oval" stroke="#FC354C" stroke-width="2" cx="25" cy="25" r="25"></circle>
                </g>
            </g>
        </g>
    </g>
</svg>